{"title":"Evil Dead (2013) 1080p x264 [DTS] - Raaki","uid":8781601,"size":1887982439,"categoryP":"video","categoryS":"hd___movies","magnet":"?xt=urn:btih:36008efe31574532e6504a285a0359d6408f3a73&amp;dn=Evil+Dead+%282013%29+1080p+x264+%5BDTS%5D+-+Raaki&amp;tr=udp%3A%2F%2Ftracker.openbittorrent.com%3A80&amp;tr=udp%3A%2F%2Fopen.demonii.com%3A1337&amp;tr=udp%3A%2F%2Ftracker.coppersurfer.tk%3A6969&amp;tr=udp%3A%2F%2Fexodus.desync.com%3A6969","seeders":1,"leechers":0,"uploader":"rakich","files":3,"time":1375725848,"description":"Five friends head to a remote cabin, where the discovery of a Book of the Dead leads them to unwittingly summon up demons living in the nearby woods. The evil presence possesses them until only one is left to fight for survival.\n\n      Format : Matroska\n      Format version : Version 4 / Version 2\n      File size : 1.76 GiB\n      Duration : 1h 31mn\n      Overall bit rate : 2 756 Kbps\n\n Video #1\n      ID : 1\n      Format : AVC\n      Format/Info : Advanced Video Codec\n      Format profile : &lt;a class=&quot;__cf_email__&quot; href=&quot;/cdn-cgi/l/email-protection&quot; data-cfemail=&quot;0f426e66614f433b213f&quot;&gt;[email&amp;#160;protected]&lt;/a&gt;&lt;script cf-hash='f9e31' type=&quot;text/javascript&quot;&gt;\n/* &lt;![CDATA[ */!function(){try{var t=&quot;currentScript&quot;in document?document.currentScript:function(){for(var t=document.getElementsByTagName(&quot;script&quot;),e=t.length;e--;)if(t[e].getAttribute(&quot;cf-hash&quot;))return t[e]}();if(t&amp;&amp;t.previousSibling){var e,r,n,i,c=t.previousSibling,a=c.getAttribute(&quot;data-cfemail&quot;);if(a){for(e=&quot;&quot;,r=parseInt(a.substr(0,2),16),n=2;a.length-n;n+=2)i=parseInt(a.substr(n,2),16)^r,e+=String.fromCharCode(i);e=document.createTextNode(e),c.parentNode.replaceChild(e,c)}}}catch(u){}}();/* ]]&gt; */&lt;/script&gt;\n      Format settings, CABAC : Yes\n      Format settings, ReFrames : 4 frames\n      Codec ID : V_MPEG4/ISO/AVC\n      Duration : 1h 31mn\n      Bit rate : 2 000 Kbps\n      Width : 1 880 pixels\n      Height : 794 pixels\n      Display aspect ratio : 2.35:1\n      Frame rate mode : Constant\n      Frame rate : 23.976 fps\n      Color space : YUV\n      Chroma subsampling : 4:2:0\n      Bit depth : 8 bits\n      Scan type : Progressive\n      Bits/(Pixel*Frame) : 0.056\n      Stream size : 1.24 GiB (71%)\n      Writing library : x264 core 120\n      Language : English\n      Default : Yes\n\n   Audio #2\n      ID : 2\n      Format : DTS\n      Format/Info : Digital Theater Systems\n      Mode : 16\n      Format settings, Endianness : Big\n      Codec ID : A_DTS\n      Duration : 1h 31mn\n      Bit rate mode : Constant\n      Bit rate : 755 Kbps\n      Channel(s) : 6 channels\n      Channel positions : Front: L C R, Side: L R, LFE\n      Sampling rate : 48.0 KHz\n      Bit depth : 24 bits\n      Compression mode : Lossy\n      Stream size : 493 MiB (27%)\n      Title : Evil Dead 2013 DTS 5.1\n      Default : Yes\n      Forced : No\n   Text #3\n      ID : 3\n      Format : UTF-8\n      Codec ID : S_TEXT/UTF8\n      Codec ID/Info : UTF-8 Plain Text\n      Default : Yes\n      Forced : No\n &lt;a href=&quot;\nhttp://cdn.piczend.com/images/aojGJDoI/h8vxoobtnq9ns4l7mhbwpxfqb.png&quot; rel=&quot;nofollow&quot; target=&quot;_NEW&quot;&gt;\nhttp://cdn.piczend.com/images/aojGJDoI/h8vxoobtnq9ns4l7mhbwpxfqb.png&lt;/a&gt;\n\n  &lt;a href=&quot;\nhttp://cdn.piczend.com/images/aojGJDoI/onlscjpafmpte96u9kn3mkgub.png&quot; rel=&quot;nofollow&quot; target=&quot;_NEW&quot;&gt;\nhttp://cdn.piczend.com/images/aojGJDoI/onlscjpafmpte96u9kn3mkgub.png&lt;/a&gt;\n\n  &lt;a href=&quot;\nhttp://cdn.piczend.com/images/aojGJDoI/cazhh1wucewltnhw21a1xv0yz.png&quot; rel=&quot;nofollow&quot; target=&quot;_NEW&quot;&gt;\nhttp://cdn.piczend.com/images/aojGJDoI/cazhh1wucewltnhw21a1xv0yz.png&lt;/a&gt;","torrent":{"xt":"urn:btih:36008efe31574532e6504a285a0359d6408f3a73","amp;dn":"Evil+Dead+%282013%29+1080p+x264+%5BDTS%5D+-+Raaki","amp;tr":["udp%3A%2F%2Ftracker.openbittorrent.com%3A80","udp%3A%2F%2Fopen.demonii.com%3A1337","udp%3A%2F%2Ftracker.coppersurfer.tk%3A6969","udp%3A%2F%2Fexodus.desync.com%3A6969"],"infoHash":"36008efe31574532e6504a285a0359d6408f3a73","infoHashBuffer":{"type":"Buffer","data":[54,0,142,254,49,87,69,50,230,80,74,40,90,3,89,214,64,143,58,115]},"announce":[],"urlList":[]}}